<svg xmlns="http://www.w3.org/2000/svg" fill="none" viewBox="0 0 21 21">
  <g clip-path="url(#clip0)">
    <path fill="#FB565A" d="M13.34 10.509l7.376-7.377c.39-.39.39-1.026 0-1.416L19.301.3a1.003 1.003 0 00-1.415 0l-7.377 7.378L3.132.301a1.003 1.003 0 00-1.416 0L.301 1.716c-.39.39-.39 1.026 0 1.416l7.377 7.377-7.377 7.377c-.39.39-.39 1.026 0 1.415l1.416 1.415c.39.39 1.026.39 1.416 0l7.377-7.377 7.377 7.377c.39.39 1.026.39 1.415 0l1.415-1.415c.39-.39.39-1.026 0-1.415l-7.378-7.377z"/>
  </g>
  <defs>
    <clipPath id="clip0">
      <path fill="#fff" d="M0 0h21v21H0z"/>
    </clipPath>
  </defs>
</svg>
